<svg height="526" width="720" xmlns="http://www.w3.org/2000/svg">
<rect height="526" fill="#555" width="720"></rect>
<text fill="#7f7" font-family="Courier New" font-size="12" xml:space="preserve">
<tspan x="10" y="26">2018-06-05 05:54:47 +0800u000a[shSsh5022R travis@139.162.35.143 root]</tspan>

<tspan x="10" y="42">2018-06-05 05:51:50 +0800u000a[shSshR travis@139.162.35.143 root]</tspan>

<tspan x="10" y="58">2018-06-05 04:18:00 +0800u000aupdate.build</tspan>

<tspan x="10" y="74"></tspan>

<tspan x="10" y="90">2018-06-05 02:48:37 +0800u000aupdate.build</tspan>

<tspan x="10" y="106"></tspan>

<tspan x="10" y="122">2018-06-04 22:57:12 +0800u000aupdate.build</tspan>

<tspan x="10" y="138"></tspan>

<tspan x="10" y="154">2018-06-04 22:32:25 +0800u000aupdate.build</tspan>

<tspan x="10" y="170"></tspan>

<tspan x="10" y="186">2018-06-04 21:07:13 +0800u000assh</tspan>

<tspan x="10" y="202"></tspan>

<tspan x="10" y="218">2018-06-04 17:56:48 +0800u000aupdate.build</tspan>

<tspan x="10" y="234"></tspan>

<tspan x="10" y="250">2018-06-04 17:46:59 +0800u000areset.task</tspan>

<tspan x="10" y="266"></tspan>

<tspan x="10" y="282">2018-06-04 17:06:51 +0800u000aupdate.build</tspan>

<tspan x="10" y="298"></tspan>

<tspan x="10" y="314">2018-06-04 17:00:41 +0800u000aupdate.build</tspan>

<tspan x="10" y="330"></tspan>

<tspan x="10" y="346">2018-06-04 16:57:07 +0800u000aupdate.build</tspan>

<tspan x="10" y="362"></tspan>

<tspan x="10" y="378">2018-06-04 16:48:27 +0800u000aupdate.build</tspan>

<tspan x="10" y="394"></tspan>

<tspan x="10" y="410">2018-06-04 16:46:11 +0800u000aupdate.build</tspan>

<tspan x="10" y="426"></tspan>

<tspan x="10" y="442">2018-04-12 01:28:37 +0800u000a[npm publish] - npm publish v2018.4.11</tspan>

<tspan x="10" y="458"></tspan>

<tspan x="10" y="474">2017-04-09 01:34:44 +0800u000a[npm publish] - npm publish v0.0.35</tspan>

<tspan x="10" y="490"></tspan>

<tspan x="10" y="506">2014-03-26 02:31:50 +0700u000aadd blank README.md</tspan>

</text>
</svg>
