<svg height="510" width="720" xmlns="http://www.w3.org/2000/svg">
<rect height="510" fill="#555" width="720"></rect>
<text fill="#7f7" font-family="Courier New" font-size="12" xml:space="preserve">
<tspan x="10" y="26">2018-06-05 05:51:50 +0800u000a[shSshR travis@139.162.35.143 root]</tspan>

<tspan x="10" y="42">2018-06-05 04:18:00 +0800u000aupdate.build</tspan>

<tspan x="10" y="58"></tspan>

<tspan x="10" y="74">2018-06-05 02:48:37 +0800u000aupdate.build</tspan>

<tspan x="10" y="90"></tspan>

<tspan x="10" y="106">2018-06-04 22:57:12 +0800u000aupdate.build</tspan>

<tspan x="10" y="122"></tspan>

<tspan x="10" y="138">2018-06-04 22:32:25 +0800u000aupdate.build</tspan>

<tspan x="10" y="154"></tspan>

<tspan x="10" y="170">2018-06-04 21:07:13 +0800u000assh</tspan>

<tspan x="10" y="186"></tspan>

<tspan x="10" y="202">2018-06-04 17:56:48 +0800u000aupdate.build</tspan>

<tspan x="10" y="218"></tspan>

<tspan x="10" y="234">2018-06-04 17:46:59 +0800u000areset.task</tspan>

<tspan x="10" y="250"></tspan>

<tspan x="10" y="266">2018-06-04 17:06:51 +0800u000aupdate.build</tspan>

<tspan x="10" y="282"></tspan>

<tspan x="10" y="298">2018-06-04 17:00:41 +0800u000aupdate.build</tspan>

<tspan x="10" y="314"></tspan>

<tspan x="10" y="330">2018-06-04 16:57:07 +0800u000aupdate.build</tspan>

<tspan x="10" y="346"></tspan>

<tspan x="10" y="362">2018-06-04 16:48:27 +0800u000aupdate.build</tspan>

<tspan x="10" y="378"></tspan>

<tspan x="10" y="394">2018-06-04 16:46:11 +0800u000aupdate.build</tspan>

<tspan x="10" y="410"></tspan>

<tspan x="10" y="426">2018-04-12 01:28:37 +0800u000a[npm publish] - npm publish v2018.4.11</tspan>

<tspan x="10" y="442"></tspan>

<tspan x="10" y="458">2017-04-09 01:34:44 +0800u000a[npm publish] - npm publish v0.0.35</tspan>

<tspan x="10" y="474"></tspan>

<tspan x="10" y="490">2014-03-26 02:31:50 +0700u000aadd blank README.md</tspan>

</text>
</svg>
