<svg height="558" width="720" xmlns="http://www.w3.org/2000/svg">
<rect height="558" fill="#555" width="720"></rect>
<text fill="#7f7" font-family="Courier New" font-size="12" xml:space="preserve">
<tspan x="10" y="26"></tspan>
<tspan x="10" y="42">[MODE_BUILD=buildApp] - 2017-05-21T14:33:50.335Z - npm-testing /home/travis/build/kaizhu256/node\</tspan>
<tspan x="10" y="58">-sandbox2</tspan>
<tspan x="10" y="74"></tspan>
<tspan x="10" y="90"></tspan>
<tspan x="10" y="106">buildApp - merged test-report from file:///home/travis/build/kaizhu256/node-sandbox2/tmp/build/t\</tspan>
<tspan x="10" y="122">est-report.json</tspan>
<tspan x="10" y="138">&gt; server listening on http-port 36153</tspan>
<tspan x="10" y="154">&gt; server listening on http-port 59403</tspan>
<tspan x="10" y="170">[node test-case 1 of 1 passed] - testCase_buildApp_default</tspan>
<tspan x="10" y="186"></tspan>
<tspan x="10" y="202">buildApp - merged test-report from file:///home/travis/build/kaizhu256/node-sandbox2/tmp/build/t\</tspan>
<tspan x="10" y="218">est-report.json</tspan>
<tspan x="10" y="234"></tspan>
<tspan x="10" y="250">-------------------------------------------------------</tspan>
<tspan x="10" y="266">| test-report - buildApidoc - node - linux v6.10.3 - 2017-05-21T14:33:00.776Z</tspan>
<tspan x="10" y="282">|   55459 ms            0 failed        1 passed      |</tspan>
<tspan x="10" y="298">-------------------------------------------------------</tspan>
<tspan x="10" y="314">| test-report - npmTest - browser - / - Mozilla/5.0 (X11; Linux x86_64) AppleWebKit/537.36 (KHTM\</tspan>
<tspan x="10" y="330">L, like Gecko) Chrome/53.0.2785.143 Electron/1.4.16 Safari/537.36 - 2017-05-21T14:32:48.554Z</tspan>
<tspan x="10" y="346">|      29 ms            0 failed        1 passed      |</tspan>
<tspan x="10" y="362">-------------------------------------------------------</tspan>
<tspan x="10" y="378">| test-report - npmTest - node - linux v6.10.3 - 2017-05-21T14:32:13.262Z</tspan>
<tspan x="10" y="394">|   44482 ms            0 failed        7 passed      |</tspan>
<tspan x="10" y="410">-------------------------------------------------------</tspan>
<tspan x="10" y="426"></tspan>
<tspan x="10" y="442">created test-report file:///home/travis/build/kaizhu256/node-sandbox2/tmp/build/test-report.html</tspan>
<tspan x="10" y="458"></tspan>
<tspan x="10" y="474"></tspan>
<tspan x="10" y="490">buildApp - 0 failed tests</tspan>
<tspan x="10" y="506"></tspan>
<tspan x="10" y="522"></tspan>
<tspan x="10" y="538">[MODE_BUILD=buildApp] - 2017-05-21T14:33:59.143Z - EXIT_CODE - 0</tspan>
</text>
</svg>
