<svg height="686" width="720" xmlns="http://www.w3.org/2000/svg">
<rect height="686" fill="#555" width="720"></rect>
<text fill="#7f7" font-family="Courier New" font-size="12" xml:space="preserve">
<tspan x="10" y="26"></tspan>

<tspan x="10" y="42">[MODE_BUILD=buildApp] - 2018-06-04T22:42:15.032Z - npm-testing /home/travis/build/kaizhu256/node\</tspan>
<tspan x="10" y="58">-sandbox2</tspan>

<tspan x="10" y="74"></tspan>

<tspan x="10" y="90"></tspan>

<tspan x="10" y="106">buildApp - merged test-report from file /home/travis/build/kaizhu256/node-sandbox2/tmp/build/tes\</tspan>
<tspan x="10" y="122">t-report.json</tspan>

<tspan x="10" y="138">&gt; server listening on http-port 40039</tspan>

<tspan x="10" y="154">&gt; server listening on http-port 57789</tspan>

<tspan x="10" y="170">[node test-case 1 of 1 passed] - testCase_buildApp_default</tspan>

<tspan x="10" y="186"></tspan>

<tspan x="10" y="202">buildApp - merged test-report from file /home/travis/build/kaizhu256/node-sandbox2/tmp/build/tes\</tspan>
<tspan x="10" y="218">t-report.json</tspan>

<tspan x="10" y="234"></tspan>

<tspan x="10" y="250">-------------------------------------------------------</tspan>

<tspan x="10" y="266">| test-report - buildApidoc - node - linux v10.3.0 - 2018-06-04T22:41:21.090Z</tspan>

<tspan x="10" y="282">|   59596 ms            0 failed        1 passed      |</tspan>

<tspan x="10" y="298">-------------------------------------------------------</tspan>

<tspan x="10" y="314">| test-report - npmTest - browser - / - Mozilla/5.0 (X11; Linux x86_64) AppleWebKit/537.36 (KHTM\</tspan>
<tspan x="10" y="330">L, like Gecko) Chrome/58.0.3029.110 Electron/1.7.15 Safari/537.36 - 2018-06-04T22:41:03.724Z</tspan>

<tspan x="10" y="346">|      52 ms            0 failed        8 passed      |</tspan>

<tspan x="10" y="362">-------------------------------------------------------</tspan>

<tspan x="10" y="378">| test-report - npmTest - node - linux v10.3.0 - 2018-06-04T22:41:02.275Z</tspan>

<tspan x="10" y="394">|   16166 ms            0 failed        8 passed      |</tspan>

<tspan x="10" y="410">-------------------------------------------------------</tspan>

<tspan x="10" y="426">| test-report - npmTestPublished - browser - / - Mozilla/5.0 (X11; Linux x86_64) AppleWebKit/537\</tspan>
<tspan x="10" y="442">.36 (KHTML, like Gecko) Chrome/58.0.3029.110 Electron/1.7.15 Safari/537.36 - 2018-06-04T22:39:57\</tspan>
<tspan x="10" y="458">.711Z</tspan>

<tspan x="10" y="474">|      46 ms            0 failed        8 passed      |</tspan>

<tspan x="10" y="490">-------------------------------------------------------</tspan>

<tspan x="10" y="506">| test-report - npmTestPublished - node - linux v10.3.0 - 2018-06-04T22:39:55.636Z</tspan>

<tspan x="10" y="522">|   16799 ms            0 failed        8 passed      |</tspan>

<tspan x="10" y="538">-------------------------------------------------------</tspan>

<tspan x="10" y="554"></tspan>

<tspan x="10" y="570">created test-report file /home/travis/build/kaizhu256/node-sandbox2/tmp/build/test-report.html</tspan>

<tspan x="10" y="586"></tspan>

<tspan x="10" y="602"></tspan>

<tspan x="10" y="618">buildApp - 0 failed tests</tspan>

<tspan x="10" y="634"></tspan>

<tspan x="10" y="650"></tspan>

<tspan x="10" y="666">[MODE_BUILD=buildApp] - 2018-06-04T22:42:22.076Z - EXIT_CODE - 0</tspan>

</text>
</svg>
