<svg height="1774" width="720" xmlns="http://www.w3.org/2000/svg">
<rect height="1774" fill="#555" width="720"></rect>
<text fill="#7f7" font-family="Courier New" font-size="12" xml:space="preserve">
<tspan x="10" y="26"></tspan>
<tspan x="10" y="42">&gt; sandbox2@0.0.1 test /home/travis/build/kaizhu256/node-sandbox2</tspan>
<tspan x="10" y="58">&gt; (set -e; export PORT=$(utility2 shServerPortRandom); utility2 test test.js)</tspan>
<tspan x="10" y="74"></tspan>
<tspan x="10" y="90"></tspan>
<tspan x="10" y="106">[MODE_BUILD=npmTest] - 2017-04-21T06:05:31.312Z - npm-testing /home/travis/build/kaizhu256/node-\</tspan>
<tspan x="10" y="122">sandbox2</tspan>
<tspan x="10" y="138"></tspan>
<tspan x="10" y="154"></tspan>
<tspan x="10" y="170">covering $ /home/travis/.nvm/versions/node/v6.10.2/bin/node /home/travis/build/kaizhu256/node-sa\</tspan>
<tspan x="10" y="186">ndbox2/test.js</tspan>
<tspan x="10" y="202"></tspan>
<tspan x="10" y="218">npmTest - merged test-report from file:///home/travis/build/kaizhu256/node-sandbox2/tmp/build/te\</tspan>
<tspan x="10" y="234">st-report.json</tspan>
<tspan x="10" y="250">&gt; server listening on http-port 54050</tspan>
<tspan x="10" y="266">apidocCreate - requiring /home/travis/build/kaizhu256/node-sandbox2 ...</tspan>
<tspan x="10" y="282">apidocCreate - ... required /home/travis/build/kaizhu256/node-sandbox2</tspan>
<tspan x="10" y="298">created apidoc file:///home/travis/build/kaizhu256/node-sandbox2/tmp/build/apidoc.html</tspan>
<tspan x="10" y="314"></tspan>
<tspan x="10" y="330">[node test-case 1 of 7 passed] - testCase_buildApidoc_default</tspan>
<tspan x="10" y="346">[node test-case 2 of 7 passed] - testCase_buildCustomOrg_default</tspan>
<tspan x="10" y="362">[node test-case 3 of 7 passed] - testCase_buildLib_default</tspan>
<tspan x="10" y="378">[node test-case 4 of 7 passed] - testCase_buildReadme_default</tspan>
<tspan x="10" y="394">[node test-case 5 of 7 passed] - testCase_buildTest_default</tspan>
<tspan x="10" y="410"></tspan>
<tspan x="10" y="426">browserTest - created electron entry-page /home/travis/build/kaizhu256/node-sandbox2/tmp/electro\</tspan>
<tspan x="10" y="442">n.15b8f1d93ed0.603779a9e457.html</tspan>
<tspan x="10" y="458"></tspan>
<tspan x="10" y="474">Xlib:  extension "RANDR" missing on display ":99.0".</tspan>
<tspan x="10" y="490">&gt; server listening on http-port 50357</tspan>
<tspan x="10" y="506"></tspan>
<tspan x="10" y="522">npmTest - merged test-report from file:///home/travis/build/kaizhu256/node-sandbox2/tmp/build/te\</tspan>
<tspan x="10" y="538">st-report.json</tspan>
<tspan x="10" y="554">Xlib:  extension "RANDR" missing on display ":99.0".</tspan>
<tspan x="10" y="570">[4698:0421/060532:WARNING:audio_manager.cc(314)] Multiple instances of AudioManager detected</tspan>
<tspan x="10" y="586">[4698:0421/060532:WARNING:audio_manager.cc(275)] Multiple instances of AudioManager detected</tspan>
<tspan x="10" y="602">[4731:0421/060533:ERROR:sandbox_linux.cc(343)] InitializeSandbox() called with multiple threads \</tspan>
<tspan x="10" y="618">in process gpu-process. </tspan>
<tspan x="10" y="634">[4698:0421/060533:ERROR:browser_gpu_channel_host_factory.cc(131)] Failed to create channel.</tspan>
<tspan x="10" y="650"></tspan>
<tspan x="10" y="666">browserTest - opened url http://127.0.0.1:54050?modeTest=1</tspan>
<tspan x="10" y="682"></tspan>
<tspan x="10" y="698">[4698:0421/060533:INFO:CONSOLE(256)] "[browser test-case 1 of 1 passed] - testCase_browser_nullC\</tspan>
<tspan x="10" y="714">ase", source: file:///home/travis/build/kaizhu256/node-sandbox2/tmp/electron.15b8f1d93ed0.603779\</tspan>
<tspan x="10" y="730">a9e457.html (256)</tspan>
<tspan x="10" y="746">[4698:0421/060534:INFO:CONSOLE(256)] "----------|-----------|-----------|-----------|-----------\</tspan>
<tspan x="10" y="762">|</tspan>
<tspan x="10" y="778">File      |   % Stmts |% Branches |   % Funcs |   % Lines |</tspan>
<tspan x="10" y="794">----------|-----------|-----------|-----------|-----------|</tspan>
<tspan x="10" y="810">----------|-----------|-----------|-----------|-----------|</tspan>
<tspan x="10" y="826">All files |       100 |       100 |       100 |       100 |</tspan>
<tspan x="10" y="842">----------|-----------|-----------|-----------|-----------|</tspan>
<tspan x="10" y="858">", source: file:///home/travis/build/kaizhu256/node-sandbox2/tmp/electron.15b8f1d93ed0.603779a9e\</tspan>
<tspan x="10" y="874">457.html (256)</tspan>
<tspan x="10" y="890">[4698:0421/060534:INFO:CONSOLE(256)] "created coverage file:///tmp/build/coverage.html/index.htm\</tspan>
<tspan x="10" y="906">l", source: file:///home/travis/build/kaizhu256/node-sandbox2/tmp/electron.15b8f1d93ed0.603779a9\</tspan>
<tspan x="10" y="922">e457.html (256)</tspan>
<tspan x="10" y="938">[node test-case 6 of 7 passed] - testCase_buildApp_default</tspan>
<tspan x="10" y="954"></tspan>
<tspan x="10" y="970">browserTest - created screenCapture file:///home/travis/build/kaizhu256/node-sandbox2/tmp/build/\</tspan>
<tspan x="10" y="986">screenCapture.npmTest.browser.%2F.png</tspan>
<tspan x="10" y="1002"></tspan>
<tspan x="10" y="1018">browserTest - created screenCapture file:///home/travis/build/kaizhu256/node-sandbox2/tmp/build/\</tspan>
<tspan x="10" y="1034">screenCapture.npmTest.browser.%2F.html</tspan>
<tspan x="10" y="1050"></tspan>
<tspan x="10" y="1066">browserTest - exit-code 0 - http://127.0.0.1:54050?modeTest=1</tspan>
<tspan x="10" y="1082"></tspan>
<tspan x="10" y="1098"></tspan>
<tspan x="10" y="1114">browserTest - merged coverage from /home/travis/build/kaizhu256/node-sandbox2/tmp/coverage.npmTe\</tspan>
<tspan x="10" y="1130">st.browser.%2F.json</tspan>
<tspan x="10" y="1146"></tspan>
<tspan x="10" y="1162"></tspan>
<tspan x="10" y="1178">browserTest - merged test-report from file:///home/travis/build/kaizhu256/node-sandbox2/tmp/test\</tspan>
<tspan x="10" y="1194">-report.npmTest.browser.%2F.json</tspan>
<tspan x="10" y="1210"></tspan>
<tspan x="10" y="1226">[node test-case 7 of 7 passed] - testCase_webpage_default</tspan>
<tspan x="10" y="1242">----------------------|-----------|-----------|-----------|-----------|</tspan>
<tspan x="10" y="1258">File                  |   % Stmts |% Branches |   % Funcs |   % Lines |</tspan>
<tspan x="10" y="1274">----------------------|-----------|-----------|-----------|-----------|</tspan>
<tspan x="10" y="1290">   node-sandbox2/     |       100 |       100 |       100 |       100 |</tspan>
<tspan x="10" y="1306">      example.js      |       100 |       100 |       100 |       100 |</tspan>
<tspan x="10" y="1322">      lib.sandbox2.js |       100 |       100 |       100 |       100 |</tspan>
<tspan x="10" y="1338">      test.js         |       100 |       100 |       100 |       100 |</tspan>
<tspan x="10" y="1354">----------------------|-----------|-----------|-----------|-----------|</tspan>
<tspan x="10" y="1370">All files             |       100 |       100 |       100 |       100 |</tspan>
<tspan x="10" y="1386">----------------------|-----------|-----------|-----------|-----------|</tspan>
<tspan x="10" y="1402"></tspan>
<tspan x="10" y="1418">created coverage file:///home/travis/build/kaizhu256/node-sandbox2/tmp/build/coverage.html/index\</tspan>
<tspan x="10" y="1434">.html</tspan>
<tspan x="10" y="1450"></tspan>
<tspan x="10" y="1466">npmTest - merged test-report from file:///home/travis/build/kaizhu256/node-sandbox2/tmp/build/te\</tspan>
<tspan x="10" y="1482">st-report.json</tspan>
<tspan x="10" y="1498"></tspan>
<tspan x="10" y="1514">-------------------------------------------------------</tspan>
<tspan x="10" y="1530">| test-report - npmTest - browser - / - Mozilla/5.0 (X11; Linux x86_64) AppleWebKit/537.36 (KHTM\</tspan>
<tspan x="10" y="1546">L, like Gecko) Chrome/53.0.2785.143 Electron/1.4.16 Safari/537.36 - 2017-04-21T06:05:33.727Z</tspan>
<tspan x="10" y="1562">|      20 ms            0 failed        1 passed      |</tspan>
<tspan x="10" y="1578">-------------------------------------------------------</tspan>
<tspan x="10" y="1594">| test-report - npmTest - node - linux v6.10.2 - 2017-04-21T06:05:31.558Z</tspan>
<tspan x="10" y="1610">|   11613 ms            0 failed        7 passed      |</tspan>
<tspan x="10" y="1626">-------------------------------------------------------</tspan>
<tspan x="10" y="1642"></tspan>
<tspan x="10" y="1658">created test-report file:///home/travis/build/kaizhu256/node-sandbox2/tmp/build/test-report.html</tspan>
<tspan x="10" y="1674"></tspan>
<tspan x="10" y="1690"></tspan>
<tspan x="10" y="1706">npmTest - 0 failed tests</tspan>
<tspan x="10" y="1722"></tspan>
<tspan x="10" y="1738"></tspan>
<tspan x="10" y="1754">[MODE_BUILD=npmTest] - 2017-04-21T06:05:45.087Z - EXIT_CODE - 0</tspan>
</text>
</svg>
