<svg height="1022" width="720" xmlns="http://www.w3.org/2000/svg">
<rect height="1022" fill="#555" width="720"></rect>
<text fill="#7f7" font-family="Courier New" font-size="12" xml:space="preserve">
<tspan x="10" y="26">2017-04-26 20:16:20 +0800</tspan>
<tspan x="10" y="42">update</tspan>
<tspan x="10" y="58"></tspan>
<tspan x="10" y="74">2017-04-26 19:51:20 +0800</tspan>
<tspan x="10" y="90">test mysql</tspan>
<tspan x="10" y="106"></tspan>
<tspan x="10" y="122">2017-04-26 19:35:35 +0800</tspan>
<tspan x="10" y="138">shCustomOrgBuildCi old passed builds</tspan>
<tspan x="10" y="154"></tspan>
<tspan x="10" y="170">2017-04-26 18:55:47 +0800</tspan>
<tspan x="10" y="186">update build</tspan>
<tspan x="10" y="202"></tspan>
<tspan x="10" y="218">2017-04-26 18:37:53 +0800</tspan>
<tspan x="10" y="234">update build</tspan>
<tspan x="10" y="250"></tspan>
<tspan x="10" y="266">2017-04-26 11:22:25 +0800</tspan>
<tspan x="10" y="282">update</tspan>
<tspan x="10" y="298"></tspan>
<tspan x="10" y="314">2017-04-26 09:39:27 +0800</tspan>
<tspan x="10" y="330">update</tspan>
<tspan x="10" y="346"></tspan>
<tspan x="10" y="362">2017-04-26 01:49:44 +0800</tspan>
<tspan x="10" y="378">update</tspan>
<tspan x="10" y="394"></tspan>
<tspan x="10" y="410">2017-04-25 17:28:23 +0800</tspan>
<tspan x="10" y="426">update</tspan>
<tspan x="10" y="442"></tspan>
<tspan x="10" y="458">2017-04-25 14:45:56 +0800</tspan>
<tspan x="10" y="474">fix build</tspan>
<tspan x="10" y="490"></tspan>
<tspan x="10" y="506">2017-04-25 11:17:16 +0800</tspan>
<tspan x="10" y="522">update</tspan>
<tspan x="10" y="538"></tspan>
<tspan x="10" y="554">2017-04-25 10:40:32 +0800</tspan>
<tspan x="10" y="570">update build</tspan>
<tspan x="10" y="586"></tspan>
<tspan x="10" y="602">2017-04-25 10:37:33 +0800</tspan>
<tspan x="10" y="618">update</tspan>
<tspan x="10" y="634"></tspan>
<tspan x="10" y="650">2017-04-25 01:01:03 +0800</tspan>
<tspan x="10" y="666">update</tspan>
<tspan x="10" y="682"></tspan>
<tspan x="10" y="698">2017-04-25 00:59:01 +0800</tspan>
<tspan x="10" y="714">update</tspan>
<tspan x="10" y="730"></tspan>
<tspan x="10" y="746">2017-04-24 23:43:51 +0800</tspan>
<tspan x="10" y="762">update</tspan>
<tspan x="10" y="778"></tspan>
<tspan x="10" y="794">2017-04-24 09:56:39 +0800</tspan>
<tspan x="10" y="810">squash</tspan>
<tspan x="10" y="826"></tspan>
<tspan x="10" y="842">2017-04-17 15:29:56 +0800</tspan>
<tspan x="10" y="858">test with 2</tspan>
<tspan x="10" y="874"></tspan>
<tspan x="10" y="890">2017-04-17 15:29:30 +0800</tspan>
<tspan x="10" y="906">update cron task</tspan>
<tspan x="10" y="922"></tspan>
<tspan x="10" y="938">2017-04-11 16:53:02 +0800</tspan>
<tspan x="10" y="954">initial app</tspan>
<tspan x="10" y="970"></tspan>
<tspan x="10" y="986">2014-03-26 02:31:50 +0700</tspan>
<tspan x="10" y="1002">add blank README.md</tspan>
</text>
</svg>
