<svg height="2414" width="720" xmlns="http://www.w3.org/2000/svg">
<rect height="2414" fill="#555" width="720"></rect>
<text fill="#7f7" font-family="Courier New" font-size="12" xml:space="preserve">
<tspan x="10" y="26">2015-08-11 16:08:08 +0800</tspan>
<tspan x="10" y="42">sync</tspan>
<tspan x="10" y="58"></tspan>
<tspan x="10" y="74">2015-08-11 16:06:19 +0800</tspan>
<tspan x="10" y="90">sync</tspan>
<tspan x="10" y="106"></tspan>
<tspan x="10" y="122">2015-08-11 16:03:41 +0800</tspan>
<tspan x="10" y="138">mv code to utility2</tspan>
<tspan x="10" y="154"></tspan>
<tspan x="10" y="170">2015-08-11 12:48:23 +0800</tspan>
<tspan x="10" y="186">sync</tspan>
<tspan x="10" y="202"></tspan>
<tspan x="10" y="218">2015-08-11 12:47:31 +0800</tspan>
<tspan x="10" y="234">sync</tspan>
<tspan x="10" y="250"></tspan>
<tspan x="10" y="266">2015-08-11 12:46:50 +0800</tspan>
<tspan x="10" y="282">sync</tspan>
<tspan x="10" y="298"></tspan>
<tspan x="10" y="314">2015-08-11 12:41:36 +0800</tspan>
<tspan x="10" y="330">sync</tspan>
<tspan x="10" y="346"></tspan>
<tspan x="10" y="362">2015-08-11 12:40:24 +0800</tspan>
<tspan x="10" y="378">sync</tspan>
<tspan x="10" y="394"></tspan>
<tspan x="10" y="410">2015-08-11 12:37:57 +0800</tspan>
<tspan x="10" y="426">rename shGitBranch* to shGitRemote*</tspan>
<tspan x="10" y="442"></tspan>
<tspan x="10" y="458">2015-08-11 12:35:20 +0800</tspan>
<tspan x="10" y="474">auto reset     shGitBranchUpdateLocal() {</tspan>
<tspan x="10" y="490"></tspan>
<tspan x="10" y="506">2015-08-11 12:22:49 +0800</tspan>
<tspan x="10" y="522">rename modify to update</tspan>
<tspan x="10" y="538"></tspan>
<tspan x="10" y="554">2015-08-11 12:21:56 +0800</tspan>
<tspan x="10" y="570">rename modify to update</tspan>
<tspan x="10" y="586"></tspan>
<tspan x="10" y="602">2015-08-11 12:20:41 +0800</tspan>
<tspan x="10" y="618">rename modify to update</tspan>
<tspan x="10" y="634"></tspan>
<tspan x="10" y="650">2015-08-11 12:14:30 +0800</tspan>
<tspan x="10" y="666">sync</tspan>
<tspan x="10" y="682"></tspan>
<tspan x="10" y="698">2015-08-11 12:09:24 +0800</tspan>
<tspan x="10" y="714">sync</tspan>
<tspan x="10" y="730"></tspan>
<tspan x="10" y="746">2015-08-11 12:03:50 +0800</tspan>
<tspan x="10" y="762">merge shBuildGithubUpload into shGitBranchModifyAndPush</tspan>
<tspan x="10" y="778"></tspan>
<tspan x="10" y="794">2015-08-11 11:47:48 +0800</tspan>
<tspan x="10" y="810">rm index.sh</tspan>
<tspan x="10" y="826"></tspan>
<tspan x="10" y="842">2015-08-11 11:37:31 +0800</tspan>
<tspan x="10" y="858">test COMMIT_LIMIT</tspan>
<tspan x="10" y="874"></tspan>
<tspan x="10" y="890">2015-08-11 11:36:46 +0800</tspan>
<tspan x="10" y="906">test COMMIT_LIMIT</tspan>
<tspan x="10" y="922"></tspan>
<tspan x="10" y="938">2015-08-11 11:35:47 +0800</tspan>
<tspan x="10" y="954">test COMMIT_LIMIT</tspan>
<tspan x="10" y="970"></tspan>
<tspan x="10" y="986">2015-08-11 11:34:57 +0800</tspan>
<tspan x="10" y="1002">test COMMIT_LIMIT</tspan>
<tspan x="10" y="1018"></tspan>
<tspan x="10" y="1034">2015-08-11 11:27:17 +0800</tspan>
<tspan x="10" y="1050">sync</tspan>
<tspan x="10" y="1066"></tspan>
<tspan x="10" y="1082">2015-08-11 11:26:21 +0800</tspan>
<tspan x="10" y="1098">sync</tspan>
<tspan x="10" y="1114"></tspan>
<tspan x="10" y="1130">2015-08-11 11:25:17 +0800</tspan>
<tspan x="10" y="1146">sync</tspan>
<tspan x="10" y="1162"></tspan>
<tspan x="10" y="1178">2015-08-11 11:21:10 +0800</tspan>
<tspan x="10" y="1194">sync</tspan>
<tspan x="10" y="1210"></tspan>
<tspan x="10" y="1226">2015-08-11 11:19:39 +0800</tspan>
<tspan x="10" y="1242">sync</tspan>
<tspan x="10" y="1258"></tspan>
<tspan x="10" y="1274">2015-08-11 11:18:22 +0800</tspan>
<tspan x="10" y="1290">sync</tspan>
<tspan x="10" y="1306"></tspan>
<tspan x="10" y="1322">2015-08-11 11:15:35 +0800</tspan>
<tspan x="10" y="1338">sync</tspan>
<tspan x="10" y="1354"></tspan>
<tspan x="10" y="1370">2015-08-11 11:12:05 +0800</tspan>
<tspan x="10" y="1386">fix build</tspan>
<tspan x="10" y="1402"></tspan>
<tspan x="10" y="1418">2015-08-11 11:09:29 +0800</tspan>
<tspan x="10" y="1434">fix build</tspan>
<tspan x="10" y="1450"></tspan>
<tspan x="10" y="1466">2015-08-11 11:06:20 +0800</tspan>
<tspan x="10" y="1482">test shGithubBranchModifyAndPush</tspan>
<tspan x="10" y="1498"></tspan>
<tspan x="10" y="1514">2015-08-11 10:50:17 +0800</tspan>
<tspan x="10" y="1530">fix build</tspan>
<tspan x="10" y="1546"></tspan>
<tspan x="10" y="1562">2015-08-11 10:47:42 +0800</tspan>
<tspan x="10" y="1578">testing sudo</tspan>
<tspan x="10" y="1594"></tspan>
<tspan x="10" y="1610">2015-08-10 22:59:59 +0800</tspan>
<tspan x="10" y="1626">rename shGithubGhpagesBuildCleanup to shGithubGhpagesDirCleanup</tspan>
<tspan x="10" y="1642"></tspan>
<tspan x="10" y="1658">2015-08-10 22:19:11 +0800</tspan>
<tspan x="10" y="1674">cleanup emscripten build.osx</tspan>
<tspan x="10" y="1690"></tspan>
<tspan x="10" y="1706">2015-08-10 22:11:29 +0800</tspan>
<tspan x="10" y="1722">cleanup emscripten</tspan>
<tspan x="10" y="1738"></tspan>
<tspan x="10" y="1754">2015-08-07 20:16:49 +0800</tspan>
<tspan x="10" y="1770">cleanup swagger-mongodb gh-pages</tspan>
<tspan x="10" y="1786"></tspan>
<tspan x="10" y="1802">2015-08-07 16:24:18 +0800</tspan>
<tspan x="10" y="1818">add shGithubGhpagesBuildCleanup</tspan>
<tspan x="10" y="1834"></tspan>
<tspan x="10" y="1850">2015-08-07 16:21:57 +0800</tspan>
<tspan x="10" y="1866">add shGithubGhpagesBuildCleanup</tspan>
<tspan x="10" y="1882"></tspan>
<tspan x="10" y="1898">2015-06-26 10:18:38 +0000</tspan>
<tspan x="10" y="1914">fix build</tspan>
<tspan x="10" y="1930"></tspan>
<tspan x="10" y="1946">2015-06-26 18:17:36 +0800</tspan>
<tspan x="10" y="1962">fix build</tspan>
<tspan x="10" y="1978"></tspan>
<tspan x="10" y="1994">2015-06-26 18:13:22 +0800</tspan>
<tspan x="10" y="2010">fix build</tspan>
<tspan x="10" y="2026"></tspan>
<tspan x="10" y="2042">2015-06-26 18:11:25 +0800</tspan>
<tspan x="10" y="2058">fix build</tspan>
<tspan x="10" y="2074"></tspan>
<tspan x="10" y="2090">2015-06-26 18:08:50 +0800</tspan>
<tspan x="10" y="2106">fix build</tspan>
<tspan x="10" y="2122"></tspan>
<tspan x="10" y="2138">2015-06-26 17:58:20 +0800</tspan>
<tspan x="10" y="2154">test squash</tspan>
<tspan x="10" y="2170"></tspan>
<tspan x="10" y="2186">2015-06-26 17:52:15 +0800</tspan>
<tspan x="10" y="2202">fix build</tspan>
<tspan x="10" y="2218"></tspan>
<tspan x="10" y="2234">2015-06-26 17:48:42 +0800</tspan>
<tspan x="10" y="2250">fix build</tspan>
<tspan x="10" y="2266"></tspan>
<tspan x="10" y="2282">2015-06-26 17:44:33 +0800</tspan>
<tspan x="10" y="2298">fix build</tspan>
<tspan x="10" y="2314"></tspan>
<tspan x="10" y="2330">2015-06-26 17:41:57 +0800</tspan>
<tspan x="10" y="2346">update .travis.yml</tspan>
<tspan x="10" y="2362"></tspan>
<tspan x="10" y="2378">2015-06-26 17:39:04 +0800</tspan>
<tspan x="10" y="2394">test npm publish</tspan>
</text>
</svg>
