<svg height="734" width="720" xmlns="http://www.w3.org/2000/svg">
<rect height="734" fill="#555" width="720"></rect>
<text fill="#7f7" font-family="Courier New" font-size="12" xml:space="preserve">
<tspan x="10" y="26">2017-03-15 14:28:36 +0000</tspan>
<tspan x="10" y="42">[npmdoc publish] v0.0.18</tspan>
<tspan x="10" y="58"></tspan>
<tspan x="10" y="74">2017-03-15 22:18:11 +0800</tspan>
<tspan x="10" y="90">[npmdoc publish] v0.0.18</tspan>
<tspan x="10" y="106"></tspan>
<tspan x="10" y="122">2017-03-15 02:02:41 +0800</tspan>
<tspan x="10" y="138">- npm publish 0.0.10</tspan>
<tspan x="10" y="154"></tspan>
<tspan x="10" y="170">2016-08-25 21:34:33 +0800</tspan>
<tspan x="10" y="186">- npm publish 2016.8.2</tspan>
<tspan x="10" y="202">- disable test on published package in build</tspan>
<tspan x="10" y="218"></tspan>
<tspan x="10" y="234">2016-08-25 21:10:59 +0800</tspan>
<tspan x="10" y="250">- npm publish 2016.8.1</tspan>
<tspan x="10" y="266">- deploy live test-server to github and heroku</tspan>
<tspan x="10" y="282">- add functions Nedb.dbExport, Nedb.dbImport, Nedb.dbReset, Nedb.dbTableCreate, Nedb.dbTableDrop</tspan>
<tspan x="10" y="298">- rename nedb-lite.js to index.js</tspan>
<tspan x="10" y="314"></tspan>
<tspan x="10" y="330">2016-06-12 03:35:05 +0300</tspan>
<tspan x="10" y="346">- npm publish 2016.5.1</tspan>
<tspan x="10" y="362">- add rollup compatibility</tspan>
<tspan x="10" y="378"></tspan>
<tspan x="10" y="394">2016-05-12 20:47:05 +0300</tspan>
<tspan x="10" y="410">- npm publish 2016.4.2</tspan>
<tspan x="10" y="426">- expose and document nedb's internal modules</tspan>
<tspan x="10" y="442"></tspan>
<tspan x="10" y="458">2016-03-19 16:53:29 +0800</tspan>
<tspan x="10" y="474">- npm publish 2016.1.3</tspan>
<tspan x="10" y="490">- add function Nedb.fileReset</tspan>
<tspan x="10" y="506">- add property Nedb.fileDict, Nedb.storage</tspan>
<tspan x="10" y="522"></tspan>
<tspan x="10" y="538">2016-03-01 03:15:28 +0800</tspan>
<tspan x="10" y="554">- npm publish 2016.1.2</tspan>
<tspan x="10" y="570">- add cdn file-download link</tspan>
<tspan x="10" y="586">- add nodejs win32 support</tspan>
<tspan x="10" y="602">- add simple github test-server</tspan>
<tspan x="10" y="618">- rename index.js to nedb-lite.js</tspan>
<tspan x="10" y="634"></tspan>
<tspan x="10" y="650">2016-02-29 17:04:33 +0800</tspan>
<tspan x="10" y="666">- npm publish 2016.1.1</tspan>
<tspan x="10" y="682"></tspan>
<tspan x="10" y="698">2014-03-26 02:31:50 +0700</tspan>
<tspan x="10" y="714">add blank README.md</tspan>
</text>
</svg>
