<svg height="558" width="720" xmlns="http://www.w3.org/2000/svg">
<rect height="558" fill="#555" width="720"></rect>
<text fill="#7f7" font-family="Courier New" font-size="12" xml:space="preserve">
<tspan x="10" y="26"></tspan>

<tspan x="10" y="42">[MODE_BUILD=buildApp] - 2018-04-11T17:45:45.401Z - npm-testing /home/travis/build/kaizhu256/node\</tspan>
<tspan x="10" y="58">-sandbox2</tspan>

<tspan x="10" y="74"></tspan>

<tspan x="10" y="90"></tspan>

<tspan x="10" y="106">buildApp - merged test-report from file /home/travis/build/kaizhu256/node-sandbox2/tmp/build/tes\</tspan>
<tspan x="10" y="122">t-report.json</tspan>

<tspan x="10" y="138">&gt; server listening on http-port 45860</tspan>

<tspan x="10" y="154">&gt; server listening on http-port 45382</tspan>

<tspan x="10" y="170">[node test-case 1 of 1 passed] - testCase_buildApp_default</tspan>

<tspan x="10" y="186"></tspan>

<tspan x="10" y="202">buildApp - merged test-report from file /home/travis/build/kaizhu256/node-sandbox2/tmp/build/tes\</tspan>
<tspan x="10" y="218">t-report.json</tspan>

<tspan x="10" y="234"></tspan>

<tspan x="10" y="250">-------------------------------------------------------</tspan>

<tspan x="10" y="266">| test-report - buildApidoc - node - linux v9.11.1 - 2018-04-11T17:44:51.697Z</tspan>

<tspan x="10" y="282">|   59411 ms            0 failed        1 passed      |</tspan>

<tspan x="10" y="298">-------------------------------------------------------</tspan>

<tspan x="10" y="314">| test-report - npmTest - browser - / - Mozilla/5.0 (X11; Linux x86_64) AppleWebKit/537.36 (KHTM\</tspan>
<tspan x="10" y="330">L, like Gecko) Chrome/58.0.3029.110 Electron/1.7.13 Safari/537.36 - 2018-04-11T17:44:33.872Z</tspan>

<tspan x="10" y="346">|      73 ms            0 failed        8 passed      |</tspan>

<tspan x="10" y="362">-------------------------------------------------------</tspan>

<tspan x="10" y="378">| test-report - npmTest - node - linux v9.11.1 - 2018-04-11T17:44:32.038Z</tspan>

<tspan x="10" y="394">|   16525 ms            0 failed        8 passed      |</tspan>

<tspan x="10" y="410">-------------------------------------------------------</tspan>

<tspan x="10" y="426"></tspan>

<tspan x="10" y="442">created test-report file /home/travis/build/kaizhu256/node-sandbox2/tmp/build/test-report.html</tspan>

<tspan x="10" y="458"></tspan>

<tspan x="10" y="474"></tspan>

<tspan x="10" y="490">buildApp - 0 failed tests</tspan>

<tspan x="10" y="506"></tspan>

<tspan x="10" y="522"></tspan>

<tspan x="10" y="538">[MODE_BUILD=buildApp] - 2018-04-11T17:45:52.571Z - EXIT_CODE - 0</tspan>

</text>
</svg>
